<?xml version="1.0" encoding="utf-8"?>
<!-- Generator: Adobe Illustrator 23.0.3, SVG Export Plug-In . SVG Version: 6.00 Build 0)  -->
<svg version="1.1" id="Icons" xmlns="http://www.w3.org/2000/svg" xmlns:xlink="http://www.w3.org/1999/xlink" x="0px" y="0px"
	 viewBox="0 0 32 32" style="enable-background:new 0 0 32 32;" xml:space="preserve">
<style type="text/css">
	.st0{fill:none;stroke:#FFB000;stroke-width:2;stroke-linecap:round;stroke-linejoin:round;stroke-miterlimit:10;}
</style>
<path class="st0" d="M16,2c-3.5,1.9-6,8.1-6,15.5c0,3.1,0.5,6.1,1.3,8.5h9.5c0.8-2.5,1.3-5.4,1.3-8.5C22,10.1,19.5,3.9,16,2z"/>
<polygon class="st0" points="20,30 12,30 13,26 19,26 "/>
<path class="st0" d="M11,26l-5,4v-0.8c0-4.7,1.4-9.3,4-13.2l0,0"/>
<path class="st0" d="M21,26l5,4v-0.8c0-4.7-1.4-9.3-4-13.2l0,0"/>
<path class="st0" d="M16,19L16,19c-1.1,0-2-0.9-2-2v-4c0-1.1,0.9-2,2-2h0c1.1,0,2,0.9,2,2v4C18,18.1,17.1,19,16,19z"/>
</svg>
